<svg width="37" height="37" viewBox="0 0 37 37" fill="none" xmlns="http://www.w3.org/2000/svg">
<g clip-path="url(#paint0_diamond_27_389_clip_path)" data-figma-skip-parse="true"><g transform="matrix(0 0.009065 -0.0173746 0 18.5 16.9892)"><rect x="0" y="0" width="1110.31" height="1057.56" fill="url(#paint0_diamond_27_389)" opacity="1" shape-rendering="crispEdges"/><rect x="0" y="0" width="1110.31" height="1057.56" transform="scale(1 -1)" fill="url(#paint0_diamond_27_389)" opacity="1" shape-rendering="crispEdges"/><rect x="0" y="0" width="1110.31" height="1057.56" transform="scale(-1 1)" fill="url(#paint0_diamond_27_389)" opacity="1" shape-rendering="crispEdges"/><rect x="0" y="0" width="1110.31" height="1057.56" transform="scale(-1)" fill="url(#paint0_diamond_27_389)" opacity="1" shape-rendering="crispEdges"/></g></g><path d="M7.16876 26.0542H1.12543L3.39168 15.4784H8.67959L13.2121 7.92419H32.8529L35.8746 26.0542H31.3421" data-figma-gradient-fill="{&#34;type&#34;:&#34;GRADIENT_DIAMOND&#34;,&#34;stops&#34;:[{&#34;color&#34;:{&#34;r&#34;:1.0,&#34;g&#34;:1.0,&#34;b&#34;:1.0,&#34;a&#34;:1.0},&#34;position&#34;:0.0},{&#34;color&#34;:{&#34;r&#34;:0.0,&#34;g&#34;:0.0,&#34;b&#34;:0.0,&#34;a&#34;:0.0},&#34;position&#34;:1.0}],&#34;stopsVar&#34;:[{&#34;color&#34;:{&#34;r&#34;:1.0,&#34;g&#34;:1.0,&#34;b&#34;:1.0,&#34;a&#34;:1.0},&#34;position&#34;:0.0},{&#34;color&#34;:{&#34;r&#34;:0.0,&#34;g&#34;:0.0,&#34;b&#34;:0.0,&#34;a&#34;:0.0},&#34;position&#34;:1.0}],&#34;transform&#34;:{&#34;m00&#34;:2.1277730215241673e-15,&#34;m01&#34;:-34.749168395996094,&#34;m02&#34;:35.874595642089844,&#34;m10&#34;:18.129999160766602,&#34;m11&#34;:1.1101423447369306e-15,&#34;m12&#34;:7.92419433593750},&#34;opacity&#34;:1.0,&#34;blendMode&#34;:&#34;NORMAL&#34;,&#34;visible&#34;:true}"/>
<path d="M31.3421 27.1873L28.3204 29.0759L25.2988 27.1873V24.1657L28.3204 22.2771L31.3421 24.1657V27.1873ZM13.2121 27.1873L10.1904 29.0759L7.16876 27.1873V24.1657L10.1904 22.2771L13.2121 24.1657V27.1873ZM32.8529 7.92419L8.6796 15.4784H34.3638L32.8529 7.92419Z" fill="#B85C08"/>
<path d="M7.16876 26.0542H1.12543L3.39168 15.4784H8.67959L13.2121 7.92419H32.8529L35.8746 26.0542H31.3421M13.2121 26.0542H25.2988" stroke="#E0E0E0" stroke-linecap="round" stroke-linejoin="round"/>
<path d="M2.74417 18.5H7.16875L8.67959 15.4784H34.1109M15.4783 23.0325H22.2771M17.7446 15.4784V7.92419M26.8096 15.4784V7.92419M31.3421 27.1873L28.3204 29.0759L25.2988 27.1873V24.1657L28.3204 22.2771L31.3421 24.1657V27.1873ZM13.2121 27.1873L10.1904 29.0759L7.16875 27.1873V24.1657L10.1904 22.2771L13.2121 24.1657V27.1873Z" stroke="#E0E0E0" stroke-linecap="round" stroke-linejoin="round"/>
<defs>
<clipPath id="paint0_diamond_27_389_clip_path"><path d="M7.16876 26.0542H1.12543L3.39168 15.4784H8.67959L13.2121 7.92419H32.8529L35.8746 26.0542H31.3421"/></clipPath><linearGradient id="paint0_diamond_27_389" x1="0" y1="0" x2="500" y2="500" gradientUnits="userSpaceOnUse">
<stop stop-color="white"/>
<stop offset="1" stop-opacity="0"/>
</linearGradient>
</defs>
</svg>
